<?xml version="1.0" encoding="UTF-8"?>
<svg width="1001px" height="1001px" viewBox="0 0 1001 1001" version="1.1" xmlns="http://www.w3.org/2000/svg" xmlns:xlink="http://www.w3.org/1999/xlink">
    <!-- Generator: Sketch 40.1 (33804) - http://www.bohemiancoding.com/sketch -->
    <title>peanut_butter_square</title>
    <desc>Created with Sketch.</desc>
    <defs>
        <linearGradient x1="50%" y1="0%" x2="50%" y2="100%" id="linearGradient-1">
            <stop stop-color="#4D525D" offset="0%"></stop>
            <stop stop-color="#252631" offset="100%"></stop>
        </linearGradient>
    </defs>
    <g id="Page-1" stroke="none" stroke-width="1" fill="none" fill-rule="evenodd">
        <g id="peanut_butter_square" transform="translate(0.389330, 0.000000)">
            <rect id="background" fill="url(#linearGradient-1)" x="0.475019451" y="0.261460374" width="1000" height="1000"></rect>
            <g id="icon" transform="translate(184.975019, 116.761460)">
                <path d="M346.939172,245.523924 C289.057178,221.578456 194.252112,148.467038 194.252112,148.467038 C194.252112,148.467038 165.146336,179.676822 149.602184,192.889469 C145.136437,196.685388 135.172689,200.048265 135.172689,200.048265 L116.83661,245.523927 L121.074322,260.242002 L33.5268389,471.794961 C33.5268389,471.794961 31.941724,472.310662 28.6188366,474.10166 C25.2959492,475.892657 21.5473284,478.251776 21.5473284,478.251776 L0.472685671,520.273475 C0.472685671,520.273475 1.21855312,533.897874 4.05417547,542.859368 C6.88979781,551.820862 13.2906251,560.782356 13.2906251,560.782356 C13.2906251,560.782356 15.5260968,610.371225 28.6188366,644.691436 C41.7115764,679.011648 94.460501,712.693364 135.172695,731.871296 C145.846514,736.899317 176.483738,750.908879 199.088811,759.571267 C212.239142,764.610546 291.88315,770.313721 306.93784,763.847054 C321.992529,757.380387 359.621052,723.925152 359.621052,723.925152 C359.621052,723.925152 365.45709,720.631448 374.147034,718.381395 C382.836978,716.131342 391.245586,715.916546 391.245586,715.916546 C391.245586,715.916546 398.264799,712.444132 404.362305,706.254762 C410.459811,700.065393 414.74776,692.060292 414.74776,692.060292 C414.74776,692.060292 420.668135,682.724495 424.317619,678.068494 C427.967104,673.412493 431.616588,670.539095 431.616588,670.539095 C431.616588,670.539095 432.969479,659.591172 432.526424,650.141231 C432.083368,640.691291 429.85771,633.023953 429.85771,633.023953 L526.049214,422.920017 L543.820264,408.798867 L553.553332,372.842109 L546.039367,362.5349 C546.039367,362.5349 549.617229,340.180051 550.820035,329.013573 C551.973032,318.309508 553.106777,296.923272 553.106777,296.923272 C553.106777,296.923272 408.6754,271.063868 346.939172,245.523924 Z" id="Path-3" fill="#B18642"></path>
                <path d="M372.877881,272.407279 C349.300832,262.634388 307.751543,247.160876 274.028913,225.731939 C225.153965,194.674509 187.165957,156.019555 187.165957,156.019555 L195.666068,147.119776 C195.666068,147.119776 280.656536,218.014758 329.599467,238.736388 C399.531596,268.344497 553.202419,297.171775 553.202419,297.171775 L552.485037,309.032014 C552.485037,309.032014 437.309324,299.114672 372.877881,272.407279 Z" id="Path-6" fill="#916F37"></path>
                <path d="M558.436091,298.460237 C545.533206,298.77854 528.409951,295.798242 507.533303,292.527929 C468.558129,286.422494 416.500819,274.875728 354.399993,250.700493 C213.477385,195.840722 176.27126,127.911934 176.27126,120.732462 C176.27126,113.552989 224.163382,11.4328071 224.163382,11.4328071 C224.163382,11.4328071 256.523961,-30.7323856 446.000631,51.5667174 C635.477301,133.86582 630.662003,186.667817 630.662003,186.667817 L586.594139,289.37431 C586.594139,289.37431 576.107961,298.024288 558.436091,298.460237 Z" id="Path" fill="#FFEB84"></path>
                <path d="M558.50722,298.429244 C516.963226,297.239176 434.444049,281.957739 347.571959,248.803473 C281.721435,223.671976 232.018581,187.802526 204.923404,160.853382 C181.162516,137.220556 176.017073,120.715268 176.017073,120.715268 L188.032007,89.0435825 L223.903911,11.7629554 C223.903911,11.7629554 234.474335,38.6317865 264.508962,62.4704235 C303.322912,93.2772542 367.010432,123.111778 402.0092,138.916322 C440.099664,156.116997 503.077646,179.735214 551.828391,189.216702 C595.988965,197.805452 628.001333,193.079425 628.001333,193.079425 L586.551557,290.056731 C586.551557,290.056731 576.070097,298.932349 558.50722,298.429244 Z" id="Path-2" fill="#FAD31E"></path>
                <path d="M521.790312,432.666147 C521.790312,432.666147 430.301658,445.395576 341.93415,406.502148 C297.519594,386.953851 253.494734,363.285271 221.901551,342.989036 C190.636718,322.90374 171.606695,306.088058 165.017273,306.088058 C151.769226,306.088058 100.90696,443.246873 83.8866077,485.09806 C74.8282901,507.371472 198.161531,597.227852 255.025345,613.341097 C311.889159,629.454343 329.165817,634.757839 359.951824,635.237411 C402.813407,635.90509 434.732851,623.080683 434.732851,623.080683 L521.790312,432.666147 Z" id="Path-4" fill="#FAD31E"></path>
                <path d="M169.360697,333.015062 C175.945572,329.517513 212.573603,365.779144 263.648025,392.433443 C310.952433,417.120278 365.080618,435.376752 395.926223,446.337788 C445.364043,463.905597 511.974854,454.653293 511.974854,454.653293 L448.094112,594.305439 C448.094112,594.305439 384.069728,633.335479 268.221738,587.598285 C202.434746,561.62535 161.375578,533.500441 136.63407,513.510339 C117.806873,498.298753 107.6781,488.548038 107.6781,483.654748 C107.6781,472.331005 162.775822,336.512611 169.360697,333.015062 Z" id="Path-5" fill="#FFEB84"></path>
            </g>
        </g>
    </g>
</svg>