<?xml version="1.0" encoding="UTF-8"?>
<svg width="1001px" height="996px" viewBox="0 0 1001 996" version="1.1" xmlns="http://www.w3.org/2000/svg" xmlns:xlink="http://www.w3.org/1999/xlink">
    <!-- Generator: Sketch 40.1 (33804) - http://www.bohemiancoding.com/sketch -->
    <title>76_square</title>
    <desc>Created with Sketch.</desc>
    <defs>
        <linearGradient x1="50%" y1="0%" x2="50%" y2="73.5211858%" id="linearGradient-1">
            <stop stop-color="#0D2758" offset="0%"></stop>
            <stop stop-color="#0B1C3F" offset="100%"></stop>
        </linearGradient>
    </defs>
    <g id="Page-1" stroke="none" stroke-width="1" fill="none" fill-rule="evenodd">
        <g id="76_square">
            <rect id="Background" fill="url(#linearGradient-1)" x="0.702724691" y="0.0430016863" width="1000" height="995.913997"></rect>
            <g id="icon" transform="translate(182.702725, 145.000000)" fill="#CE3F42">
                <polygon id="7" points="96.4693491 532.312766 233.808899 105.109342 96.4693491 105.109342 0.856998314 38.9379427 346.301859 38.9379427 275.302286 245.1774 115.923791 705.646919 110.339568 705.32693"></polygon>
                <path d="M367.712514,22.0637915 L394.145698,0.201011804 L635.244479,0.201011804 L538.444851,69.4922529 L432.009936,69.4922552 C432.009936,69.4922552 423.623975,70.2191206 420.963129,79.6051632 L352.492636,278.344875 L505.801061,278.344875 C521.317123,278.344875 525.834887,294.766105 523.37538,300.296614 C523.119194,300.872681 522.68539,302.073307 522.68539,302.073307 L448.503702,493.087763 L420.869276,510.082585 L224.577669,510.082585 C224.577669,510.082585 216.67201,504.388268 213.851217,498.738016 C211.030424,493.087763 213.221817,486.004423 213.221817,486.004423 L367.712514,22.0637915 Z M303.903123,447.127192 C299.274807,447.127192 296.772042,443.668787 298.322251,439.377124 L332.989048,343.404176 C334.535133,339.123932 339.538913,335.654108 344.168789,335.654108 L440.129193,335.654108 C444.757508,335.654108 447.260274,339.112513 445.710065,343.404176 L411.043268,439.377124 C409.497183,443.657368 404.493403,447.127192 399.863527,447.127192 L303.903123,447.127192 Z" id="6"></path>
            </g>
        </g>
    </g>
</svg>