<?xml version="1.0" encoding="UTF-8"?>
<svg width="1483px" height="997px" viewBox="0 0 1483 997" version="1.1" xmlns="http://www.w3.org/2000/svg" xmlns:xlink="http://www.w3.org/1999/xlink">
    <!-- Generator: Sketch 39.1 (31720) - http://www.bohemiancoding.com/sketch -->
    <title>varian_wrynn</title>
    <desc>Created with Sketch.</desc>
    <defs>
        <linearGradient x1="50%" y1="0%" x2="50%" y2="100%" id="linearGradient-1">
            <stop stop-color="#FFCF29" offset="0%"></stop>
            <stop stop-color="#FF990D" offset="100%"></stop>
        </linearGradient>
    </defs>
    <g id="Page-1" stroke="none" stroke-width="1" fill="none" fill-rule="evenodd">
        <g id="varian_wrynn" transform="translate(0.105018, 0.371127)">
            <rect id="Rectangle" fill="url(#linearGradient-1)" x="0.00479647029" y="0.00480537862" width="1481.94624" height="995.83356"></rect>
            <path d="M567.477175,839.803318 C570.209049,853.957296 579.653782,882.129878 579.653782,882.129878 C579.653782,882.129878 563.462374,850.373066 544.368654,817.572613 C533.396663,798.724204 519.368958,779.932125 512.258196,765.599818 C502.17952,745.285446 490.962514,703.365572 490.962514,703.365572 L492.211613,753.523488 C492.211613,753.523488 477.1466,729.493981 468.583859,701.314881 C464.885211,689.143012 463.944989,672.893737 464.458557,664.009072 C465.725614,642.089159 480.297477,610.294407 490.962514,584.062966 C500.55957,560.458301 506.419784,541.15166 506.419784,541.15166 C506.419784,541.15166 491.100357,553.297106 483.512288,557.265813 C474.87402,561.783795 457.740773,566.611727 457.740773,566.611727 C457.740773,566.611727 469.757566,558.361867 485.118889,541.151663 C497.463279,527.321509 511.760538,506.536791 525.285054,488.447416 C538.794643,470.378006 546.141584,447.913784 556.494841,434.394193 C559.457892,430.524952 567.477178,423.314654 567.477178,423.314654 C567.477178,423.314654 563.576044,369.564422 574.228338,346.281325 C583.045554,327.009224 625.885708,295.649061 625.885708,295.649061 C625.885708,295.649061 603.768837,310.421211 583.548882,313.362111 C563.173868,316.325564 502.206366,315.305506 502.206366,315.305506 C502.206366,315.305506 518.40994,317.137465 540.398381,302.801057 C564.72377,286.940966 597.881511,252.326041 618.991594,241.065888 C635.414611,232.305823 673.946193,222.766305 673.946193,222.766305 C673.946193,222.766305 654.720656,212.27064 629.61945,204.846997 C602.020914,196.684772 572.005034,197.047789 546.832685,182.486714 C521.660336,167.925639 514.869302,161.377617 496.791274,150.995603 C478.713245,140.613589 460.752663,133.051902 460.752663,133.051902 C460.752663,133.051902 498.524919,144.659943 529.754227,136.82691 C560.983535,128.993878 602.165855,124.883629 635.90492,126.613637 C670.727728,128.399216 699.369089,135.769328 712.588867,142.752143 C754.541045,164.911689 775.247075,202.732089 775.247075,202.732089 C775.247075,202.732089 778.585808,164.481004 772.261979,138.223935 C765.938151,111.966866 753.347313,87.2888994 753.347313,87.2888994 C753.347313,87.2888994 808.682637,139.980401 820.047402,160.543623 C834.125345,186.016025 829.675437,225.395771 829.675437,225.395771 C829.675437,225.395771 841.688111,218.670913 847.784674,216.828256 C857.506678,213.889827 877.13114,211.052514 877.13114,211.052514 C877.13114,211.052514 863.592869,224.411764 857.811745,231.538158 C853.810714,236.470229 847.784674,247.22791 847.784674,247.22791 C847.784674,247.22791 875.572628,253.670199 889.816754,255.058683 C903.293084,256.372324 933.70569,253.638477 933.70569,253.638477 C933.70569,253.638477 924.656914,268.09877 913.133312,274.915819 C901.982194,281.512517 865.681529,293.879719 865.681529,293.879719 C865.681529,293.879719 890.894601,304.035713 905.382167,323.395597 C919.869734,342.75548 918.597937,377.926414 918.597937,377.926414 C918.597937,377.926414 902.22942,355.314837 889.816754,344.905728 C882.280143,338.585619 858.750106,327.73876 858.750106,327.73876 C858.750106,327.73876 869.608282,345.77721 873.125465,354.947622 C876.448072,363.610712 879.269475,381.239267 879.269475,381.239267 C879.269475,381.239267 911.206049,392.549606 946.321788,430.357153 C981.437527,468.1647 989.787383,518.048097 989.787383,518.048097 C989.787383,518.048097 977.395023,476.058361 944.242542,451.884289 C911.090061,427.710217 895.42185,427.603492 895.42185,427.603492 C895.42185,427.603492 920.36363,447.014011 941.082817,479.015307 C958.932845,506.585116 970.696904,545.43299 977.395023,566.611741 C991.867899,612.373451 987.362366,718.309738 987.362366,718.309738 C987.362366,718.309738 976.143914,684.258936 969.226531,668.149136 C965.041855,658.4035 954.056191,640.74343 954.056191,640.74343 C954.056191,640.74343 970.539682,728.950399 958.206523,778.342913 C948.249168,818.22068 887.184649,908.554271 887.184649,908.554271 C887.184649,908.554271 887.977199,867.070555 885.740593,846.300857 C884.50756,834.850593 876.775733,811.894386 876.775733,811.894386 C876.775733,811.894386 874.013436,821.087982 873.125465,825.659588 C871.36719,834.711851 868.836996,852.765992 868.836996,852.765992 C868.836996,852.765992 859.911787,827.062141 857.811745,791.638816 C856.904322,776.332504 860.601263,758.940477 861.323517,741.472517 C862.413769,715.10441 876.252777,700.127403 876.775736,680.279624 C877.036072,670.399141 874.631512,632.847488 874.631512,632.847488 C874.631512,632.847488 870.760619,644.411726 867.596658,648.825921 C863.213288,654.941373 853.169623,665.832347 853.169623,665.832347 C853.169623,665.832347 861.023703,649.173891 863.839586,623.5706 C865.693348,606.715344 863.33177,584.008049 862.29467,566.611741 C861.015932,545.162192 854.3278,531.713699 843.93826,515.391622 C833.54872,499.069545 806.490359,498.413115 790.464876,503.518275 C774.439392,508.623435 760.563207,522.967831 760.563207,522.967831 C760.563207,522.967831 760.613898,517.163862 761.540779,513.652581 C762.467661,510.141301 764.183688,506.471864 764.183688,506.471864 C764.183688,506.471864 754.706667,511.181278 746.237105,518.366218 C737.767543,525.551157 730.223292,533.3657 730.223292,533.3657 C730.223292,533.3657 723.090232,524.387493 715.008959,516.860787 C706.927685,509.33408 698.17672,503.518283 698.17672,503.518283 C698.17672,503.518283 696.708215,504.487635 698.101271,509.113832 C699.494327,513.740029 702.647782,518.366225 702.647782,518.366225 C702.647782,518.366225 669.340937,484.65111 646.731632,503.518275 C624.122327,522.385441 606.216272,562.000048 598.044158,605.656563 C592.152984,637.127996 597.136406,677.501013 598.044165,691.298306 C600.211147,724.234915 617.260475,770.256001 621.117001,809.681961 C624.242951,841.639104 618.991593,905.447613 618.991593,905.447613 C618.991593,905.447613 613.500231,870.258002 602.389566,848.217388 C591.2789,826.176773 560.983535,785.398364 560.983535,785.398364 C560.983535,785.398364 563.985633,821.713458 567.477175,839.803318 Z" id="Path" fill="#4A3021"></path>
            <path d="M721.362297,320.584179 C709.765176,320.298721 686.411575,320.584179 686.411575,320.584179 C686.411575,320.584179 691.556791,313.85838 700.665612,307.760182 C708.465725,302.538142 713.327088,300.811853 725.750156,300.666767 C738.173224,300.52168 743.303651,302.935264 750.327283,307.760182 C760.524636,314.765302 765.088734,322.520781 765.088734,322.520781 C765.088734,322.520781 735.990896,320.944255 721.362297,320.584179 Z" id="Path-2" fill="#294DAD"></path>
            <path d="M782.495262,683.190836 C753.266287,678.600035 752.033745,679.900575 734.816668,680.7136 C717.599591,681.526625 676.176581,689.380569 655.806248,689.020711 C640.823027,688.756021 618.420406,681.64684 618.420406,681.64684 C618.420406,681.64684 642.321703,683.245929 670.662366,678.696437 C694.874341,674.809717 722.315967,664.732527 740.977917,664.102305 C752.47292,663.714115 770.005225,668.814928 784.582298,671.351768 C802.006262,674.384051 815.643866,674.986525 815.643866,674.986525 C815.643866,674.986525 811.073401,658.565732 806.915347,638.839557 C804.196724,625.942171 802.281307,610.712545 799.759696,600.925175 C795.784184,585.49464 784.582303,554.424316 784.582303,554.424316 C784.582303,554.424316 807.611605,595.151844 815.643862,615.268145 C823.506265,634.959053 832.266283,673.845943 832.266283,673.845943 C832.266283,673.845943 833.952196,675.0342 843.764355,675.577581 C853.576513,676.120962 863.535427,675.577576 863.535427,675.577576 C863.535427,675.577576 850.961553,679.821306 844.759978,681.646842 C840.937387,682.772084 833.462931,684.429909 833.462931,684.429909 C833.462931,684.429909 833.462933,697.811328 833.462933,704.50204 C833.462934,715.180779 833.462933,736.538261 833.462933,736.538261 C833.462933,736.538261 828.689212,711.9183 825.417131,699.44625 C824.213179,694.857195 819.23381,685.194368 819.23381,685.194368 C819.23381,685.194368 811.724237,687.781637 782.495262,683.190836 Z" id="Path-3" fill="#294BAA"></path>
        </g>
    </g>
</svg>