<?xml version="1.0" encoding="UTF-8"?>
<svg width="1482px" height="996px" viewBox="0 0 1482 996" version="1.1" xmlns="http://www.w3.org/2000/svg" xmlns:xlink="http://www.w3.org/1999/xlink">
    <!-- Generator: Sketch 39.1 (31720) - http://www.bohemiancoding.com/sketch -->
    <title>soldier_76</title>
    <desc>Created with Sketch.</desc>
    <defs>
        <linearGradient x1="50%" y1="100%" x2="50%" y2="0%" id="linearGradient-1">
            <stop stop-color="#0B1C3F" offset="0%"></stop>
            <stop stop-color="#0D2758" offset="100%"></stop>
        </linearGradient>
    </defs>
    <g id="Page-1" stroke="none" stroke-width="1" fill="none" fill-rule="evenodd">
        <g id="soldier_76">
            <rect id="Background" fill="url(#linearGradient-1)" x="0" y="0" width="1482" height="995.913997"></rect>
            <g id="Icon" transform="translate(464.093423, 155.072681)">
                <path d="M13.2806878,528.77635 L-6.7112429e-31,412.259882 L30.8079427,371.22929 C30.8079427,371.22929 50.4277768,422.003601 51.0398902,435.435072 C51.6520037,448.866543 58.3519575,476.799665 58.3519575,476.799665 L63.0717724,548.135826 L107.974933,623.480879 L111.303782,685.887091 L13.2806878,528.77635 Z" id="LeftJawPlate" fill="#1E5EAD"></path>
                <path d="M29.3046604,388.789942 C23.9909684,373.675087 13.7926456,361.772762 12.3512497,348.261123 C11.4938071,340.22346 16.156491,336.109809 22.158603,330.366735 C23.1541853,329.41412 22.6604197,324.53232 22.1103078,308.510522 C21.8717999,301.564068 15.5723048,296.162029 4.57379409,288.913037 C-3.79471385,283.39745 4.38560112,273.130846 10.041509,269.034426 C15.6974169,264.938007 24.6977699,251.978328 25.8744631,250.093204 C31.7943612,240.609217 43.1532187,217.993591 49.6332839,199.436592 C53.0816518,189.561482 56.5985986,174.415402 61.3511096,166.255259 C65.5293689,159.081116 68.1019084,155.536804 68.1019084,150.648632 C68.1019084,150.102823 66.2472755,145.732738 62.7409211,141.456164 C57.9704274,135.637766 42.2089752,118.174071 38.1992089,96.4122356 C37.6786453,93.5870287 36.7111485,87.1866896 38.1992089,86.0141503 C42.7946426,82.3931099 37.1583839,89.5948858 55.5736415,99.6567012 C73.988899,109.718517 85.341765,107.820204 91.481729,107.820204 C94.7960327,107.820204 114.740047,105.170365 130.94434,101.518073 C144.759559,98.4042548 155.953482,94.2170277 160.917557,92.9353889 C166.225125,91.5650664 159.462276,80.2901045 154.555345,63.0384053 C148.788035,42.7618045 144.630452,16.0445346 151.568551,14.2433413 C156.728715,12.9037161 164.52219,29.0527101 185.088867,40.281497 C194.926644,45.6526278 207.546137,50.8968688 223.44178,54.8927977 C238.093238,58.5759572 255.852861,61.0440681 269.407212,65.0820288 C297.666932,73.5008488 303.958816,78.8877434 307.428839,80.3399705 C307.837789,80.5111189 315.86651,83.3738171 319.689074,80.1560057 C320.885936,79.1484946 322.272762,73.3114519 321.725769,65.1709261 C320.977039,54.0280914 318.09153,38.5693556 319.753012,25.2731724 C320.754424,17.25927 322.789528,2.55811257 326.576658,0.31562384 C332.883771,-3.41903184 336.629313,29.5344569 370.087172,49.5548001 C377.228246,53.8278396 395.119764,67.5293728 412.243697,80.1560057 C422.077332,87.4070095 429.296406,106.494421 430.154438,113.753951 C430.522556,116.868479 443.934224,118.287657 457.850893,117.410216 C476.372032,116.242464 496.148035,112.561784 490.760952,118.487987 C481.326047,128.867102 478.40258,147.961756 481.29053,160.137504 C482.847269,166.700796 498.431,179.30117 511.042777,196.413479 C521.82746,211.046693 529.742253,235.378971 532.583802,242.563137 C541.949275,266.241465 545.526195,288.458982 546.31125,295.645375 C547.980329,310.924124 534.027175,296.341344 532.583802,308.510522 C529.135219,337.585755 529.783929,361.122444 524.196862,363.078545 C520.641402,364.323356 513.513973,340.698185 506.951965,327.22761 C500.425079,313.829136 493.309151,302.98803 485.753546,288.913039 C482.780199,283.374127 491.623619,268.570704 488.370499,263.133486 C486.162796,259.443564 476.613061,273.059478 472.275237,269.685238 C467.937414,266.310999 470.428551,252.134085 465.489583,237.460473 C460.550616,222.786861 456.618473,199.914621 450.379301,193.330607 C443.875405,186.467238 432.75106,190.673087 417.146991,189.942703 C401.542922,189.212318 386.983001,189.148312 369.415695,191.643591 C330.235786,197.208746 334.268868,204.920766 330.80214,201.269209 C327.32179,197.603302 334.77355,188.962826 340.400533,181.296141 C345.683412,174.098292 349.13977,167.792729 346.936269,166.255261 C343.267564,163.695464 335.630912,169.629981 327.041991,170.094808 C315.160089,170.737849 302.877098,171.244075 287.910218,174.86881 C272.34731,178.637893 255.559586,187.779404 250.914929,189.942703 C241.803496,194.186449 236.271087,203.925748 235.968004,204.234058 C231.229029,209.054764 228.122553,207.065802 227.459455,206.123602 C222.064424,198.457771 234.03072,160.089575 233.635838,160.137504 C167.657439,168.145648 152.075934,212.544064 144.993651,214.342113 C137.911367,216.140162 133.883986,210.696919 132.414163,203.319743 C130.94434,195.942566 129.561599,193.330607 128.812218,193.330607 C126.680096,193.330607 121.084956,201.989745 117.786244,207.824491 C115.596278,211.698092 114.805875,212.296346 112.625749,217.19121 C108.201999,227.123501 103.612785,235.894579 100.331444,247.056439 C97.0376044,258.260812 97.0856704,266.253724 94.4073154,273.059478 C92.4536592,278.023757 90.1621012,279.184139 88.6734819,279.184139 C80.5998167,279.184139 75.7645264,271.61994 73.6716266,271.820017 C71.5787268,272.020094 70.8229358,279.843409 73.6716266,284.949733 C76.5203174,290.056057 73.3515245,293.882699 72.1352222,295.645375 C67.1513288,302.868079 60.4896448,314.196491 52.2561944,325.19309 C44.022744,336.189688 42.7429995,356.080887 43.933831,376.670727 C45.2152746,398.82728 48.5003566,423.773273 45.7888094,428.288487 C40.5574513,436.999641 36.2209244,408.463331 29.3046604,388.789942 Z" id="Rectangle-5" fill="#C0BDBD"></path>
                <path d="M77.4297941,476.525052 C41.9341724,434.15275 45.5748875,419.014571 49.5103543,397.27659 C53.440943,375.565554 65.6737246,364.014924 71.9787286,362.095024 C81.4229244,359.219227 95.6778064,362.106833 125.916253,373.829047 C156.154699,385.551261 192.247929,390.431683 212.246358,394.917564 C248.432098,403.034446 323.386973,404.867035 365.758447,394.917562 C411.65183,384.141092 462.757661,360.15343 480.630967,362.095024 C500.639174,364.268535 509.690813,401.885319 509.68422,412.224119 C509.672167,431.122213 478.877355,474.34806 478.877355,474.34806 C478.877355,474.34806 418.345095,541.139686 390.041627,538.356745 C361.73816,535.573804 341.375225,512.689863 333.618951,505.372256 C311.568717,484.569104 280.589901,487.752248 275.71151,487.752248 C258.171311,487.752248 238.154787,488.750095 223.134725,501.967742 C208.114664,515.185388 179.612295,538.356745 165.232542,538.356745 C150.852789,538.356745 112.925416,518.897354 77.4297941,476.525052 Z" id="Goggles_OutterLayer" fill="#AD4F52"></path>
                <path d="M99.5931986,440.180457 C66.9877862,426.824256 78.5234383,405.247052 78.5234383,405.247052 C78.5234383,405.247052 149.090238,438.479569 280.255844,438.479569 C411.42145,438.479569 474.719119,405.247052 474.719119,405.247052 C474.719119,405.247052 490.385737,426.963151 444.407792,443.488227 C411.120724,455.452035 323.370794,465.424716 280.255844,465.424716 C224.792573,465.424716 137.903214,455.873443 99.5931986,440.180457 Z" id="Goggles_InnerLayer" fill="#FD523F"></path>
                <path d="M455.671265,526.2875 L442.390577,409.771032 L473.19852,368.74044 C473.19852,368.74044 492.818354,419.514751 493.430467,432.946222 C494.042581,446.377693 500.742534,474.310815 500.742534,474.310815 L505.462349,545.646976 L550.365509,620.992029 L553.694359,683.398241 L455.671265,526.2875 Z" id="RightJawPlate" fill="#1E5EAD" transform="translate(498.042468, 526.069341) scale(-1, 1) translate(-498.042468, -526.069341) "></path>
            </g>
        </g>
    </g>
</svg>