<?xml version="1.0" encoding="UTF-8"?>
<svg width="1001px" height="1000px" viewBox="0 0 1001 1000" version="1.1" xmlns="http://www.w3.org/2000/svg" xmlns:xlink="http://www.w3.org/1999/xlink">
    <!-- Generator: Sketch 40.1 (33804) - http://www.bohemiancoding.com/sketch -->
    <title>lunar_ops_square</title>
    <desc>Created with Sketch.</desc>
    <defs>
        <linearGradient x1="50%" y1="0%" x2="50%" y2="100%" id="linearGradient-1">
            <stop stop-color="#BDBDBD" offset="0%"></stop>
            <stop stop-color="#8C8C8C" offset="100%"></stop>
        </linearGradient>
    </defs>
    <g id="Page-1" stroke="none" stroke-width="1" fill="none" fill-rule="evenodd">
        <g id="lunar_ops_square" transform="translate(0.944597, 0.000000)">
            <rect id="Rectangle" fill="url(#linearGradient-1)" x="0" y="0" width="1000" height="1000"></rect>
            <g id="icon" transform="translate(185.512367, 211.130742)">
                <ellipse id="Oval" fill="#13D0FF" cx="313.673623" cy="288.93864" rx="288.055248" ry="288.055248"></ellipse>
                <path d="M313.673623,576.993888 C472.762143,576.993888 601.728871,448.027161 601.728871,288.93864 C601.728871,129.85012 472.762143,0.883392226 313.673623,0.883392226 C154.585102,0.883392226 25.6183746,129.85012 25.6183746,288.93864 C25.6183746,448.027161 154.585102,576.993888 313.673623,576.993888 Z M312.58554,551.849526 C457.412376,551.849526 574.817724,434.444178 574.817724,289.617343 C574.817724,144.790507 457.412376,27.385159 312.58554,27.385159 C167.758705,27.385159 50.3533569,144.790507 50.3533569,289.617343 C50.3533569,434.444178 167.758705,551.849526 312.58554,551.849526 Z" id="Combined-Shape" fill="#000000"></path>
                <path d="M71.6905067,444.884968 L62.9310639,430.564215 C62.9310639,430.564215 53.5936259,441.567749 46.1847887,452.978557 C40.9573008,461.029735 36.9848741,469.517793 36.6375543,473.46069 C36.4047434,476.103641 37.4892013,479.263029 39.8000586,481.453574 C41.0620294,482.649842 42.8028851,483.357702 44.6328863,483.996311 C50.3473981,485.990483 58.2914567,485.641797 58.2914567,485.641797 C58.2914567,485.641797 54.0357848,483.661707 52.142426,480.598295 C50.6457278,478.17667 51.1556854,474.144921 51.8210946,472.177894 C54.8302775,463.282401 71.6905067,444.884968 71.6905067,444.884968 Z" id="Path-3" fill="#000000"></path>
                <path d="M2.60338715,500.185965 C2.60338715,500.185965 2.45790807,513.728602 14.4299955,520.682697 C24.6571856,526.623252 46.5141021,526.270927 54.1631985,524.915654 C83.9636358,519.635591 120.898643,502.43518 120.898643,502.43518 L109.287913,491.580022 C109.287913,491.580022 83.4958946,503.79845 57.5356096,510.992652 C51.4209781,512.687159 29.0458139,517.121925 17.113913,513.949988 C4.77033477,510.668612 2.60338715,500.185965 2.60338715,500.185965 Z" id="Path-4" fill="#000000"></path>
                <path d="M577.541415,177.050562 C577.541415,177.050562 613.138507,137.307757 620.040568,119.267352 C623.552061,110.089114 628.148946,95.7371546 627.124217,84.9115388 C626.182891,74.9670268 617.408373,67.6982468 617.408373,67.6982468 C617.408373,67.6982468 622.639707,84.9115388 618.732185,94.9813996 C614.824662,105.05126 614.824533,105.058671 610.57357,111.43194 C604.877295,119.972099 597.429395,128.907525 591.435625,136.460673 C579.857346,151.051231 570.9317,159.381148 570.9317,159.381148 L577.541415,177.050562 Z" id="Path-5" fill="#000000"></path>
                <path d="M538.822506,110.803232 L528.00057,97.3855897 C528.00057,97.3855897 546.623318,90.189455 561.298697,87.8853905 C570.629172,86.4204868 579.206204,87.9259818 580.482243,89.0150574 C583.064182,91.2186941 584.30596,95.5222584 583.943968,99.0403561 C583.558352,102.78804 581.477728,105.688185 581.477728,105.688185 C581.477728,105.688185 578.910524,101.679394 571.866068,100.990258 C565.458549,100.363432 554.699717,102.993554 551.288627,104.032883 C544.148266,106.208488 538.822506,110.803232 538.822506,110.803232 Z" id="Path-6" fill="#000000"></path>
                <path d="M62.9378281,430.84379 L54.4585422,414.958986 C54.4585422,414.958986 9.89768836,468.794596 3.89922617,483.844358 C-2.54970109,500.024309 5.91575772,509.770086 9.0507345,511.973975 C12.1857113,514.177864 26.817335,521.096681 66.829726,508.282688 C93.3361792,499.79398 141.186523,478.586778 176.399551,458.287362 C208.90684,439.547735 244.053442,421.726125 275.127065,401.833654 C335.23863,363.351899 382.476029,326.561955 382.476029,326.561955 C382.476029,326.561955 438.048544,376.866693 492.261589,331.461975 C546.474634,286.057258 513.157495,223.383239 513.157495,223.383239 C513.157495,223.383239 591.167658,141.583434 614.700784,106.352231 C620.641462,97.4585032 630.453691,65.4639271 605.751448,61.8437006 C578.323635,57.8240293 517.476281,85.2585763 517.476281,85.2585763 L528.75144,97.2838218 C528.75144,97.2838218 556.884334,88.064749 566.391293,87.1970181 C569.073294,86.9522231 590.669812,84.7246701 580.865026,107.868855 C559.345356,142.774426 492.261589,205.69111 492.261589,205.69111 C492.261589,205.69111 483.711169,199.069189 471.131194,194.297524 C463.944486,191.571559 455.138507,190.135321 446.627608,189.152417 C434.645894,187.768676 405.472725,188.862313 385.879947,204.55183 C369.453797,217.705572 361.479078,241.01945 359.879732,250.287379 C358.530816,258.104115 355.724873,266.446147 356.731093,273.968111 C358.930774,290.411743 367.722935,303.612595 367.722935,303.612595 C367.722935,303.612595 356.803795,313.801385 328.895478,335.72596 C293.902377,363.21629 237.799432,401.592895 206.782169,419.10895 C188.666101,429.339449 158.593839,446.800185 128.71363,460.433824 C105.859555,470.861602 82.9113338,478.12683 66.745121,483.725285 C56.8961003,487.136058 39.3173686,486.541001 37.105147,477.038351 C33.8814685,463.190965 62.9378281,430.84379 62.9378281,430.84379 Z" id="Path-2" fill="#FFFFFF"></path>
                <path d="M141.605423,497.954697 C141.605423,497.954697 226.930484,451.114569 265.860703,426.790957 C304.393305,402.715776 381.209264,349.405641 381.209264,349.405641 C381.209264,349.405641 446.833963,387.83016 503.855709,344.496633 C560.877456,301.163106 534.798585,225.079108 534.798585,225.079108 L580.130967,179.319203 L565.662707,167.866101 L509.788521,223.395269 C509.788521,223.395269 547.624259,282.202109 493.167647,329.537097 C438.711036,376.872084 382.679341,325.689395 382.679341,325.689395 C382.679341,325.689395 287.362019,392.289307 240.250607,421.188163 C201.428753,445.002078 128.277223,482.743898 128.277223,482.743898 L141.605423,497.954697 Z" id="Path-7" fill="#000000"></path>
                <path d="M354.288574,315.215486 L367.902717,303.476893 C367.902717,303.476893 336.676239,250.759721 386.389045,208.440261 C436.607288,165.690532 492.088441,206.181025 492.088441,206.181025 L501.969905,196.352586 C501.969905,196.352586 437.303908,145.111362 377.340321,196.352586 C317.376733,247.59381 354.288574,315.215486 354.288574,315.215486 Z" id="Path-8" fill="#000000"></path>
            </g>
        </g>
    </g>
</svg>