<?xml version="1.0" encoding="UTF-8"?>
<svg width="1000px" height="1000px" viewBox="0 0 1000 1000" version="1.1" xmlns="http://www.w3.org/2000/svg" xmlns:xlink="http://www.w3.org/1999/xlink">
    <!-- Generator: Sketch 39.1 (31720) - http://www.bohemiancoding.com/sketch -->
    <title>varian_wrynn_square</title>
    <desc>Created with Sketch.</desc>
    <defs>
        <linearGradient x1="50%" y1="0%" x2="50%" y2="100%" id="linearGradient-1">
            <stop stop-color="#FFCF29" offset="0%"></stop>
            <stop stop-color="#FF990D" offset="100%"></stop>
        </linearGradient>
    </defs>
    <g id="Page-1" stroke="none" stroke-width="1" fill="none" fill-rule="evenodd">
        <g id="varian_wrynn_square" transform="translate(-0.466304, -0.171875)">
            <rect id="Rectangle" fill="url(#linearGradient-1)" x="0.763314585" y="0.92066467" width="999.000999" height="999.000999"></rect>
            <g id="Group" transform="translate(234.030048, 89.831754)">
                <path d="M110.366809,752.051266 C113.095953,766.191104 122.53125,794.335542 122.53125,794.335542 C122.53125,794.335542 106.356018,762.610455 87.2813723,729.842771 C76.3203425,711.013191 62.3066514,692.239885 55.2029929,677.921897 C45.1343861,657.627819 33.9285858,615.749822 33.9285858,615.749822 L35.1764366,665.85763 C35.1764366,665.85763 20.1264739,641.852129 11.5722868,613.70118 C7.87733413,601.541471 6.93805046,585.308429 7.45110595,576.43264 C8.71689725,554.534625 23.2742028,522.771635 33.9285851,496.566399 C43.5160538,472.985315 49.3704138,453.697962 49.3704138,453.697962 C49.3704138,453.697962 34.0662904,465.831274 26.4858018,469.796017 C17.8561635,474.309485 0.740033004,479.132594 0.740033004,479.132594 C0.740033004,479.132594 12.7448213,470.890976 28.0907983,453.697965 C40.4228563,439.881628 54.7058327,419.117674 68.2168375,401.046369 C81.7129298,382.995011 89.0525319,360.553231 99.3954453,347.047146 C102.355536,343.18177 110.366811,335.978675 110.366811,335.978675 C110.366811,335.978675 106.469574,282.282139 117.111227,259.022303 C125.919634,239.769454 168.716991,208.44062 168.716991,208.44062 C168.716991,208.44062 146.622215,223.198013 126.42246,226.135975 C106.067801,229.096467 45.1612045,228.077428 45.1612045,228.077428 C45.1612045,228.077428 61.3485914,229.907557 83.315066,215.585472 C107.616154,199.741224 140.74077,165.16088 161.829764,153.911976 C178.236375,145.160663 216.729463,135.630674 216.729463,135.630674 C216.729463,135.630674 197.523132,125.145494 172.447003,117.729268 C144.876038,109.575197 114.890143,109.937852 89.7429416,95.3913229 C64.5957398,80.8447942 57.811491,74.3033136 39.7515222,63.9316715 C21.6915534,53.5600294 3.74891411,46.0058957 3.74891411,46.0058957 C3.74891411,46.0058957 41.4834352,57.6023402 72.6815452,49.7771329 C103.879655,41.9519256 145.020835,37.8457835 178.726194,39.5740633 C213.514214,41.3578577 242.126962,48.7206076 255.333533,55.6964461 C297.243801,77.8338552 317.929146,115.616473 317.929146,115.616473 C317.929146,115.616473 321.264544,77.4036003 314.947032,51.1727622 C308.629521,24.9419241 296.051262,0.288610739 296.051262,0.288610739 C296.051262,0.288610739 351.331306,52.9274733 362.684717,73.4701526 C376.748596,98.9171076 372.303134,138.257514 372.303134,138.257514 C372.303134,138.257514 384.303807,131.539373 390.39428,129.698557 C400.106572,126.763064 419.711429,123.928585 419.711429,123.928585 C419.711429,123.928585 406.186682,137.27449 400.411333,144.393764 C396.414299,149.320909 390.39428,160.067842 390.39428,160.067842 C390.39428,160.067842 418.154473,166.503695 432.38437,167.890792 C445.847236,169.203121 476.229461,166.472005 476.229461,166.472005 C476.229461,166.472005 467.189724,180.917852 455.677634,187.728091 C444.537656,194.318198 408.273256,206.673045 408.273256,206.673045 C408.273256,206.673045 433.46114,216.818894 447.934233,236.159437 C462.407327,255.49998 461.1368,290.635778 461.1368,290.635778 C461.1368,290.635778 444.784635,268.04679 432.38437,257.64808 C424.855288,251.334285 401.348757,240.498262 401.348757,240.498262 C401.348757,240.498262 412.196086,258.518691 415.709755,267.679942 C419.029043,276.334377 421.847627,293.945321 421.847627,293.945321 C421.847627,293.945321 453.752296,305.244361 488.832955,343.014139 C523.913613,380.783916 532.255128,430.61748 532.255128,430.61748 C532.255128,430.61748 519.875148,388.669691 486.755786,364.519769 C453.636424,340.369847 437.983866,340.263229 437.983866,340.263229 C437.983866,340.263229 462.900729,359.654357 483.599218,391.623684 C501.431413,419.16595 513.18372,457.975015 519.875148,479.132609 C534.333565,524.848603 529.832534,630.679059 529.832534,630.679059 C529.832534,630.679059 518.625289,596.662274 511.714816,580.568567 C507.534321,570.832668 496.559632,553.19024 496.559632,553.19024 C496.559632,553.19024 513.026655,641.30909 500.705817,690.652261 C490.758409,730.49019 429.754894,820.733538 429.754894,820.733538 C429.754894,820.733538 430.546652,779.291264 428.312281,758.542315 C427.08048,747.10349 419.356377,724.170215 419.356377,724.170215 C419.356377,724.170215 416.596839,733.354628 415.709755,737.921666 C413.953237,746.964886 411.42557,765.000991 411.42557,765.000991 C411.42557,765.000991 402.509278,739.322818 400.411333,703.934881 C399.504818,688.64386 403.198065,671.269208 403.919598,653.818698 C405.008761,627.476933 418.833943,612.514888 419.35638,592.686937 C419.616455,582.816325 417.214298,545.302186 417.214298,545.302186 C417.214298,545.302186 413.347272,556.854871 410.186472,561.264656 C405.80748,567.373999 395.773849,578.254093 395.773849,578.254093 C395.773849,578.254093 403.620083,561.612279 406.433153,536.034566 C408.285063,519.196148 405.925844,496.511538 404.88978,479.132609 C403.612319,457.704487 396.93087,444.269429 386.551708,427.963658 C376.172547,411.657887 349.141218,411.002113 333.131744,416.102173 C317.12227,421.202233 303.259947,435.532299 303.259947,435.532299 C303.259947,435.532299 303.310587,429.734128 304.236543,426.226355 C305.162498,422.718582 306.876811,419.052811 306.876811,419.052811 C306.876811,419.052811 297.409258,423.757521 288.948157,430.935282 C280.487056,438.113044 272.950341,445.91978 272.950341,445.91978 C272.950341,445.91978 265.824408,436.950542 257.751208,429.431355 C249.678007,421.912168 240.935784,416.102181 240.935784,416.102181 C240.935784,416.102181 239.468746,417.070564 240.860411,421.69214 C242.252075,426.313715 245.40238,430.93529 245.40238,430.93529 C245.40238,430.93529 212.128808,397.253856 189.54209,416.102173 C166.955372,434.95049 149.067205,474.525523 140.903255,518.138425 C135.017966,549.578417 139.99641,589.911102 140.903261,603.694611 C143.068079,636.598317 160.100374,682.573428 163.953048,721.960001 C167.075875,753.885219 161.829763,817.629983 161.829763,817.629983 C161.829763,817.629983 156.343888,782.475527 145.244321,760.456931 C134.144755,738.438335 103.879655,697.700664 103.879655,697.700664 C103.879655,697.700664 106.878755,733.979478 110.366809,752.051266 Z" id="Path" fill="#4A3021"></path>
                <path d="M264.098199,233.350828 C252.512663,233.065655 229.182393,233.350828 229.182393,233.350828 C229.182393,233.350828 234.322469,226.631748 243.42219,220.539642 C251.21451,215.322819 256.071017,213.598255 268.481674,213.453313 C280.892331,213.308371 286.017633,215.719545 293.034249,220.539642 C303.221415,227.537765 307.780953,235.285496 307.780953,235.285496 C307.780953,235.285496 278.712183,233.710545 264.098199,233.350828 Z" id="Path-2" fill="#294DAD"></path>
                <path d="M325.170092,595.595241 C295.970317,591.009026 294.739006,592.308267 277.539129,593.12048 C260.339252,593.932693 218.957623,601.778791 198.607641,601.419292 C183.639388,601.154866 161.259146,594.052787 161.259146,594.052787 C161.259146,594.052787 185.136566,595.650279 213.448917,591.105331 C237.636704,587.222495 265.050916,577.155372 283.694223,576.52578 C295.177742,576.137977 312.692532,581.233694 327.255043,583.768 C344.6616,586.797254 358.28558,587.399126 358.28558,587.399126 C358.28558,587.399126 353.719681,570.994737 349.565781,551.288268 C346.849874,538.403768 344.936371,523.189355 342.417279,513.411763 C338.445738,497.996643 327.255048,466.957359 327.255048,466.957359 C327.255048,466.957359 350.261343,507.6442 358.285577,527.740404 C366.140124,547.411641 374.891392,586.259683 374.891392,586.259683 C374.891392,586.259683 376.575621,587.446753 386.377977,587.989592 C396.180332,588.53243 406.129298,587.989586 406.129298,587.989586 C406.129298,587.989586 393.567985,592.229077 387.372606,594.052789 C383.553834,595.176907 376.086844,596.833076 376.086844,596.833076 C376.086844,596.833076 376.086846,610.201127 376.086847,616.885154 C376.086847,627.553226 376.086847,648.889372 376.086847,648.889372 C376.086847,648.889372 371.317894,624.294006 368.049082,611.834416 C366.846332,607.249945 361.871938,597.596771 361.871938,597.596771 C361.871938,597.596771 354.369867,600.181455 325.170092,595.595241 Z" id="Path-3" fill="#294BAA"></path>
            </g>
        </g>
    </g>
</svg>